<svg width="32" height="32" viewBox="0 0 32 32" fill="none" xmlns="http://www.w3.org/2000/svg">
    <g clip-path="url(#clip0_7_161)">
        <path fill-rule="evenodd" clip-rule="evenodd" d="M15.9998 19.3333C17.8408 19.3333 19.3332 17.8409 19.3332 16C19.3332 14.159 17.8408 12.6666 15.9998 12.6666C14.1589 12.6666 12.6665 14.159 12.6665 16C12.6665 17.8409 14.1589 19.3333 15.9998 19.3333ZM15.9998 18.2222C17.2271 18.2222 18.2221 17.2272 18.2221 16C18.2221 14.7727 17.2271 13.7777 15.9998 13.7777C14.7725 13.7777 13.7776 14.7727 13.7776 16C13.7776 17.2272 14.7725 18.2222 15.9998 18.2222Z" fill="white"/>
        <path d="M20.0002 11.3334C19.632 11.3334 19.3335 11.6319 19.3335 12C19.3335 12.3682 19.632 12.6667 20.0002 12.6667C20.3684 12.6667 20.6668 12.3682 20.6668 12C20.6668 11.6319 20.3684 11.3334 20.0002 11.3334Z" fill="white"/>
        <path fill-rule="evenodd" clip-rule="evenodd" d="M9.10248 10.8507C8.6665 11.7063 8.6665 12.8264 8.6665 15.0666V16.9333C8.6665 19.1735 8.6665 20.2936 9.10248 21.1492C9.48597 21.9019 10.0979 22.5138 10.8505 22.8973C11.7062 23.3333 12.8263 23.3333 15.0665 23.3333H16.9332C19.1734 23.3333 20.2935 23.3333 21.1491 22.8973C21.9018 22.5138 22.5137 21.9019 22.8972 21.1492C23.3332 20.2936 23.3332 19.1735 23.3332 16.9333V15.0666C23.3332 12.8264 23.3332 11.7063 22.8972 10.8507C22.5137 10.098 21.9018 9.48609 21.1491 9.1026C20.2935 8.66663 19.1734 8.66663 16.9332 8.66663H15.0665C12.8263 8.66663 11.7062 8.66663 10.8505 9.1026C10.0979 9.48609 9.48597 10.098 9.10248 10.8507ZM16.9332 9.99996H15.0665C13.9244 9.99996 13.148 10.001 12.5479 10.05C11.9633 10.0978 11.6644 10.1844 11.4559 10.2906C10.9541 10.5463 10.5462 10.9542 10.2905 11.456C10.1842 11.6645 10.0977 11.9635 10.0499 12.548C10.0009 13.1481 9.99984 13.9245 9.99984 15.0666V16.9333C9.99984 18.0754 10.0009 18.8518 10.0499 19.4519C10.0977 20.0365 10.1842 20.3354 10.2905 20.544C10.5462 21.0457 10.9541 21.4536 11.4559 21.7093C11.6644 21.8156 11.9633 21.9022 12.5479 21.9499C13.148 21.9989 13.9244 22 15.0665 22H16.9332C18.0753 22 18.8516 21.9989 19.4518 21.9499C20.0364 21.9022 20.3353 21.8156 20.5438 21.7093C21.0456 21.4536 21.4535 21.0457 21.7092 20.544C21.8154 20.3354 21.902 20.0365 21.9498 19.4519C21.9988 18.8518 21.9998 18.0754 21.9998 16.9333V15.0666C21.9998 13.9245 21.9988 13.1481 21.9498 12.548C21.902 11.9635 21.8154 11.6645 21.7092 11.456C21.4535 10.9542 21.0456 10.5463 20.5438 10.2906C20.3353 10.1844 20.0364 10.0978 19.4518 10.05C18.8516 10.001 18.0753 9.99996 16.9332 9.99996Z" fill="white"/>
    </g>
    <rect x="0.5" y="0.5" width="31" height="31" rx="15.5" stroke="white" stroke-opacity="0.2"/>
    <defs>
        <clipPath id="clip0_7_161">
            <rect width="16" height="16" fill="white" transform="translate(8 8)"/>
        </clipPath>
    </defs>
</svg>
