<svg width="32" height="32" viewBox="0 0 32 32" fill="none" xmlns="http://www.w3.org/2000/svg">
    <path d="M14.6903 18.3671C14.305 20.3863 13.8349 22.3221 12.4416 23.3333C12.0112 20.2814 13.0729 17.9893 13.5659 15.5559C12.7252 14.1411 13.6669 11.2937 15.4397 11.9952C17.6211 12.8581 13.5509 17.2556 16.283 17.8049C19.1361 18.3782 20.301 12.8545 18.5321 11.0584C15.9758 8.46458 11.0913 10.9994 11.6918 14.713C11.8379 15.6207 12.7757 15.8961 12.0667 17.1493C10.4306 16.7862 9.94259 15.4961 10.0052 13.7759C10.1066 10.96 12.5351 8.9888 14.9714 8.71596C18.0522 8.37113 20.9437 9.84675 21.3429 12.745C21.7927 16.0164 19.9525 19.5592 16.6579 19.3042C15.7649 19.2348 15.3899 18.7922 14.6903 18.3671Z" fill="white"/>
    <rect x="0.5" y="0.5" width="31" height="31" rx="15.5" stroke="white" stroke-opacity="0.2"/>
</svg>
